:SAMPLES-PER-SECOND 30
:FULLY-SPECIFIED
:DEGREES
240
root  91.9667 39.9365 -27.53 5.5775 -83.6512 -1.42828
RightUpLeg  -11.1666 -13.259 -4.65868
RightLeg  14.2253 -13.2627 2.89916
RightFoot  -4.09109 0.0661142 -1.48802
RightToes  0.000482159 0.542163 -0.142577
Spine  43.0387 -2.85207 9.80741
Spine1  4.60685 0.662403 -0.498479
HEad  -16.3729 -5.80359 -1.53649
LeftShoulder1  11.8507 -18.3115 -47.3958
LeftArm  -14.3204 -0.657687 -25.2647
LeftForeArm  19.88 -5.68116 -4.59571
LeftHand  -0.25398 0.0180481 5.50724
RightShoulder  6.85002 12.4796 36.8423
RightArm  5.49766 5.47045 30.9376
RightForeArm  -9.38576 12.7629 9.42561
RightHand  -1.5026 2.66536 -21.679
LeftUpLeg  -24.7193 16.2334 -0.495798
LeftLeg  35.2622 -5.77388 -4.00941
LeftFoot  -0.0529577 1.2433 -12.4279
LeftToes  1.06247e-005 4.65854e-005 -8.18501e-006
241
root  91.5788 39.9984 -27.25 1.55972 -83.8164 2.18788
RightUpLeg  -9.80643 -13.3159 -5.74358
RightLeg  13.8257 -12.7417 3.05336
RightFoot  -4.17595 0.00911172 -0.58601
RightToes  0.000482159 0.542163 -0.142577
Spine  39.3113 -2.23254 9.00828
Spine1  4.91096 0.679373 -0.351155
HEad  -15.876 -5.93762 -1.5524
LeftShoulder1  11.4317 -17.4455 -47.6206
LeftArm  -15.5783 2.91425 -23.6073
LeftForeArm  18.3476 -7.61038 -4.17773
LeftHand  -0.25398 0.0180481 5.50724
RightShoulder  6.79327 12.2738 37.0388
RightArm  9.78892 0.0237294 30.232
RightForeArm  -11.0097 15.4933 8.46191
RightHand  -1.30986 1.99613 -20.6303
LeftUpLeg  -23.5357 13.9774 0.6681
LeftLeg  34.8353 -2.69382 -1.68694
LeftFoot  -2.33295 0.511289 -6.40026
LeftToes  1.06247e-005 4.65854e-005 -8.18501e-006
242
root  91.1835 40.0278 -26.92 -4.00218 -84.132 7.90529
RightUpLeg  -9.20712 -13.5992 -6.94213
RightLeg  13.7512 -11.8767 3.14879
RightFoot  -4.47365 -0.0409295 0.227963
RightToes  0.000482159 0.542163 -0.142577
Spine  35.0498 -1.41917 7.66913
Spine1  5.62447 0.582258 0.361298
HEad  -16.4895 -6.20767 -1.66047
LeftShoulder1  11.0589 -16.7332 -47.6963
LeftArm  -16.9497 5.92809 -22.2853
LeftForeArm  17.3976 -9.56906 -3.73122
LeftHand  -0.25398 0.0180481 5.50724
RightShoulder  6.61441 12.0212 36.6003
RightArm  11.5264 -4.64405 30.2861
RightForeArm  -13.2755 17.4307 7.59465
RightHand  -1.19689 1.31215 -20.7394
LeftUpLeg  -21.9106 11.669 1.86111
LeftLeg  31.6647 0.724122 0.823122
LeftFoot  -3.75925 0.334049 -4.74352
LeftToes  1.06247e-005 4.65854e-005 -8.18501e-006
243
root  90.7829 40.0291 -26.519 -7.0323 -84.559 10.8045
RightUpLeg  -8.38224 -13.8726 -7.97892
RightLeg  13.7431 -11.1946 3.28761
RightFoot  -4.66591 -0.0818761 0.914682
RightToes  0.000482159 0.542163 -0.142577
Spine  31.6978 -0.859843 6.697
Spine1  5.50186 0.55115 0.897641
HEad  -16.5318 -6.34748 -1.71494
LeftShoulder1  10.8376 -16.2423 -47.9085
LeftArm  -17.6734 8.90223 -20.7461
LeftForeArm  16.5464 -11.3591 -3.41572
LeftHand  -0.25398 0.0180481 5.50724
RightShoulder  6.23005 11.2322 36.2876
RightArm  12.0203 -8.70295 30.4492
RightForeArm  -16.8126 18.7173 7.13382
RightHand  -1.21419 0.919437 -22.2548
LeftUpLeg  -19.4718 10.0655 3.36983
LeftLeg  26.9499 2.24299 1.58873
LeftFoot  -3.99158 0.327761 -4.72975
LeftToes  1.06247e-005 4.65854e-005 -8.18501e-006
244
root  90.3961 40.0269 -26.0514 -6.47337 -85.0243 9.5298
RightUpLeg  -6.6239 -13.8914 -8.83881
RightLeg  13.074 -10.6167 3.54916
RightFoot  -4.65558 -0.130592 1.71949
RightToes  0.000482159 0.542163 -0.142577
Spine  29.403 -0.735212 6.17476
Spine1  4.98444 0.49135 0.845893
HEad  -15.5204 -5.83795 -1.67395
LeftShoulder1  10.5344 -15.8272 -47.5621
LeftArm  -18.2174 11.64 -19.6331
LeftForeArm  16.1545 -12.7369 -3.15279
LeftHand  -0.25398 0.0180481 5.50724
RightShoulder  5.80999 10.2489 36.2582
RightArm  11.8514 -11.8732 30.4073
RightForeArm  -18.8713 19.2287 6.99384
RightHand  -1.28644 1.08455 -22.997
LeftUpLeg  -16.3486 9.55138 4.95669
LeftLeg  21.8831 2.45901 1.41392
LeftFoot  -3.89022 0.294462 -4.16447
LeftToes  1.06247e-005 4.65854e-005 -8.18501e-006
245
root  90.0548 40.006 -25.5238 -3.95796 -85.5221 6.2495
RightUpLeg  -4.84249 -13.7116 -9.51043
RightLeg  12.2003 -10.0744 3.58635
RightFoot  -4.53496 -0.18904 2.65705
RightToes  0.000482159 0.542163 -0.142577
Spine  27.3027 -0.812474 5.67617
Spine1  4.78475 0.287042 0.657185
HEad  -15.5128 -5.49948 -1.72161
LeftShoulder1  10.0692 -15.3995 -46.4675
LeftArm  -19.2394 13.8242 -19.4296
LeftForeArm  16.8368 -13.5861 -2.80345
LeftHand  -0.25398 0.0180481 5.50724
RightShoulder  5.5387 9.64577 36.1363
RightArm  10.917 -14.082 30.2316
RightForeArm  -17.1648 18.8572 7.03098
RightHand  -1.26788 1.50124 -21.337
LeftUpLeg  -13.3442 9.42833 6.34606
LeftLeg  17.3469 3.20032 1.42302
LeftFoot  -3.65871 0.236111 -3.19254
LeftToes  1.06247e-005 4.65854e-005 -8.18501e-006
246
root  89.7646 39.9374 -24.9049 -0.615692 -86.0653 2.47272
RightUpLeg  -3.89178 -13.6799 -10.0933
RightLeg  11.9453 -9.48353 3.26105
RightFoot  -4.40101 -0.212427 3.00972
RightToes  0.000482159 0.542163 -0.142577
Spine  25.1866 -0.93522 5.22846
Spine1  4.56246 -0.000374737 0.621466
HEad  -15.3776 -5.00454 -1.60868
LeftShoulder1  9.59754 -14.9485 -45.3393
LeftArm  -20.4026 15.4997 -19.4608
LeftForeArm  18.1546 -14.0569 -2.44431
LeftHand  -0.25398 0.0180481 5.50724
RightShoulder  5.38445 9.37249 35.8396
RightArm  9.3969 -15.7491 29.788
RightForeArm  -13.7254 18.1402 7.0926
RightHand  -1.0456 1.15951 -18.5354
LeftUpLeg  -11.0019 8.74156 7.41758
LeftLeg  14.0083 4.43741 1.45889
LeftFoot  -3.09906 0.258918 -3.32165
LeftToes  1.06247e-005 4.65854e-005 -8.18501e-006
